<svg viewBox="0 0 64 64" xmlns="http://www.w3.org/2000/svg" role="img" aria-hidden="true">
  <path d="M 32 4
           C 44.15 4 54 13.85 54 26
           C 54 31.8 51.77 37.08 48.12 41
           C 49.34 38.28 50 35.27 50 32.1
           C 50 20.5 40.6 11.1 29 11.1
           C 25.4 11.1 22 12.02 19.05 13.63
           C 22.9 8.03 27.7 4 32 4 Z"
        fill="currentColor"/>
  <path d="M 32 60
           C 19.85 60 10 50.15 10 38
           C 10 32.2 12.23 26.92 15.88 23
           C 14.66 25.72 14 28.73 14 31.9
           C 14 43.5 23.4 52.9 35 52.9
           C 38.6 52.9 42 51.98 44.95 50.37
           C 41.1 55.97 36.3 60 32 60 Z"
        fill="currentColor"/>
</svg>
